# xmcd
#
# Track frame offsets:
#	150
#	16415
#	35752
#	50531
#	75276
#	94632
#	107321
#	137017
#	150617
#	162417
#	190021
#	212971
#	236064
#	250074
#
# Disc length: 3686 seconds
# Revision: 2
# Processed by: cddbd v1.5.2PL0 Copyright (c) Steve Scherf et al.
# Submitted via: dBpowerAMP V12.0
#
DISCID=ac0e640e
DTITLE=Ry Cooder - Pull Up Some Dust and Sit Down
DYEAR=2011
DGENRE=Americana, roots
TTITLE0=No Banker Left Behind
TTITLE1=El Corrido de Jesse James
TTITLE2=Quick Sand
TTITLE3=Dirty Chateau
TTITLE4=Humpty Dumpty World
TTITLE5=Christmas Time This Year
TTITLE6=Baby Joined the Army
TTITLE7=Lord Tell Me Why
TTITLE8=I Want My Crown
TTITLE9=John Lee Hooker for President
TTITLE10=Dreamer
TTITLE11=Simple Tools
TTITLE12=If There's a God
TTITLE13=No Hard Feelings
EXTD=
EXTT0=
EXTT1=
EXTT2=
EXTT3=
EXTT4=
EXTT5=
EXTT6=
EXTT7=
EXTT8=
EXTT9=
EXTT10=
EXTT11=
EXTT12=
EXTT13=
PLAYORDER=
